<svg width="107" height="71" viewBox="0 0 107 71" fill="none" xmlns="http://www.w3.org/2000/svg">
<path d="M101.335 25.2147L104.164 27.1096C103.245 28.4685 101.049 30.7997 97.2522 30.7997C92.537 30.7997 89.0254 27.1346 89.0254 22.4721C89.0254 17.5105 92.5742 14.1445 96.8551 14.1445C101.161 14.1445 103.27 17.5853 103.953 19.4428L104.325 20.3902L93.2319 25.0028C94.0756 26.6733 95.3909 27.521 97.2522 27.521C99.1135 27.521 100.404 26.5985 101.335 25.2147ZM92.6363 22.2103L100.044 19.1186C99.6346 18.0839 98.4186 17.3484 96.9668 17.3484C95.1179 17.3484 92.5494 18.994 92.6363 22.2103Z" fill="#FF302F"/>
<path d="M83.6777 5.6543H87.2514V30.0386H83.6777V5.6543Z" fill="#20B15A"/>
<path d="M78.0446 14.7926H81.4941V29.6027C81.4941 35.7486 77.8833 38.2793 73.6148 38.2793C69.5944 38.2793 67.1748 35.5616 66.269 33.3551L69.4331 32.0336C70.0039 33.3925 71.3813 35.0006 73.6148 35.0006C76.357 35.0006 78.0446 33.2927 78.0446 30.1013V28.9046H77.9205C77.1016 29.9019 75.5381 30.7995 73.5527 30.7995C69.4083 30.7995 65.6113 27.1717 65.6113 22.4968C65.6113 17.797 69.4083 14.1318 73.5527 14.1318C75.5257 14.1318 77.1016 15.017 77.9205 15.9893H78.0446V14.7926ZM78.2928 22.4968C78.2928 19.5547 76.3446 17.4105 73.8629 17.4105C71.3564 17.4105 69.247 19.5547 69.247 22.4968C69.247 25.4015 71.3564 27.5083 73.8629 27.5083C76.3446 27.5208 78.2928 25.4015 78.2928 22.4968Z" fill="#3686F7"/>
<path d="M45.9937 22.4348C45.9937 27.2343 42.2712 30.7623 37.7049 30.7623C33.1386 30.7623 29.416 27.2219 29.416 22.4348C29.416 17.6103 33.1386 14.0947 37.7049 14.0947C42.2712 14.0947 45.9937 17.6103 45.9937 22.4348ZM42.3704 22.4348C42.3704 19.4428 40.2114 17.3859 37.7049 17.3859C35.1984 17.3859 33.0393 19.4428 33.0393 22.4348C33.0393 25.4018 35.1984 27.4837 37.7049 27.4837C40.2114 27.4837 42.3704 25.4018 42.3704 22.4348Z" fill="#FF302F"/>
<path d="M64.0972 22.4721C64.0972 27.2717 60.3747 30.7997 55.8084 30.7997C51.2421 30.7997 47.5195 27.2717 47.5195 22.4721C47.5195 17.6476 51.2421 14.1445 55.8084 14.1445C60.3747 14.1445 64.0972 17.6351 64.0972 22.4721ZM60.4615 22.4721C60.4615 19.4802 58.3025 17.4232 55.796 17.4232C53.2895 17.4232 51.1304 19.4802 51.1304 22.4721C51.1304 25.4391 53.2895 27.521 55.796 27.521C58.3149 27.521 60.4615 25.4267 60.4615 22.4721Z" fill="#FFBA40"/>
<path d="M15.7915 27.1468C10.5924 27.1468 6.5224 22.9332 6.5224 17.7097C6.5224 12.4863 10.5924 8.27266 15.7915 8.27266C18.5958 8.27266 20.6432 9.38217 22.157 10.8033L24.6511 8.29759C22.5417 6.26556 19.725 4.71973 15.7915 4.71973C8.66906 4.71973 2.67578 10.554 2.67578 17.7097C2.67578 24.8655 8.66906 30.6998 15.7915 30.6998C19.6381 30.6998 22.5417 29.4282 24.8125 27.0596C27.1452 24.7159 27.8649 21.4247 27.8649 18.7569C27.8649 17.9217 27.7657 17.0615 27.654 16.4257H15.7915V19.8914H24.2417C23.9935 22.0605 23.311 23.544 22.3059 24.5538C21.0899 25.788 19.1666 27.1468 15.7915 27.1468Z" fill="#3686F7"/>
<path d="M14.7622 58.78H12.2022V63H10.3622V58.78H3.62219V57.94L10.8622 48.8H12.2022V57.22H14.7622V58.78ZM10.3622 53.16L10.5422 51.56H10.4822L9.74219 52.86L6.78219 56.44L5.72219 57.38L7.22219 57.22H10.3622V53.16ZM16.1572 61.98C16.1572 61.5933 16.2772 61.2867 16.5172 61.06C16.7705 60.8333 17.0972 60.72 17.4972 60.72C17.8972 60.72 18.2172 60.8333 18.4572 61.06C18.7105 61.2867 18.8372 61.5933 18.8372 61.98C18.8372 62.34 18.7105 62.64 18.4572 62.88C18.2172 63.12 17.8972 63.24 17.4972 63.24C17.0972 63.24 16.7705 63.12 16.5172 62.88C16.2772 62.64 16.1572 62.34 16.1572 61.98ZM20.9428 53.26C20.9428 52.6333 21.0428 52.0467 21.2428 51.5C21.4561 50.94 21.7628 50.46 22.1628 50.06C22.5628 49.6467 23.0628 49.3267 23.6628 49.1C24.2628 48.86 24.9561 48.74 25.7428 48.74C26.4895 48.74 27.1561 48.86 27.7428 49.1C28.3428 49.34 28.8495 49.68 29.2628 50.12C29.6761 50.56 29.9895 51.0933 30.2028 51.72C30.4295 52.3467 30.5428 53.0533 30.5428 53.84C30.5428 55.3467 30.3495 56.6667 29.9628 57.8C29.5895 58.9333 29.0628 59.8933 28.3828 60.68C27.7161 61.4533 26.9295 62.0533 26.0228 62.48C25.1295 62.9067 24.1628 63.1667 23.1228 63.26L22.7228 61.76C23.5628 61.6667 24.3161 61.4667 24.9828 61.16C25.6495 60.84 26.2228 60.44 26.7028 59.96C27.1828 59.4667 27.5761 58.9133 27.8828 58.3C28.1895 57.6733 28.4028 57 28.5228 56.28C28.3228 56.4933 28.1161 56.6733 27.9028 56.82C27.7028 56.9667 27.4761 57.0867 27.2228 57.18C26.9828 57.26 26.7095 57.32 26.4028 57.36C26.1095 57.3867 25.7695 57.4 25.3828 57.4C24.7961 57.4 24.2295 57.3067 23.6828 57.12C23.1495 56.9333 22.6761 56.6667 22.2628 56.32C21.8628 55.9733 21.5428 55.5467 21.3028 55.04C21.0628 54.52 20.9428 53.9267 20.9428 53.26ZM22.8628 53.12C22.8628 54.0133 23.1361 54.6933 23.6828 55.16C24.2295 55.6133 24.9361 55.84 25.8028 55.84C26.5095 55.84 27.1028 55.7267 27.5828 55.5C28.0761 55.2733 28.4361 55 28.6628 54.68C28.6895 54.52 28.7028 54.38 28.7028 54.26C28.7028 54.14 28.7028 54.0067 28.7028 53.86C28.7028 53.42 28.6428 52.9867 28.5228 52.56C28.4028 52.1333 28.2161 51.7533 27.9628 51.42C27.7228 51.0867 27.4095 50.82 27.0228 50.62C26.6361 50.4067 26.1761 50.3 25.6428 50.3C24.7628 50.3 24.0761 50.5533 23.5828 51.06C23.1028 51.5533 22.8628 52.24 22.8628 53.12Z" fill="white"/>
<path d="M45.9926 55.3615L43.8785 57.2065L44.5118 59.9533C44.5453 60.0969 44.5358 60.2472 44.4843 60.3854C44.4329 60.5236 44.3418 60.6436 44.2226 60.7303C44.1033 60.8171 43.9612 60.8667 43.8139 60.8731C43.6665 60.8795 43.5206 60.8423 43.3943 60.7662L40.9985 59.313L38.6079 60.7662C38.4816 60.8423 38.3357 60.8795 38.1884 60.8731C38.041 60.8667 37.8989 60.8171 37.7796 60.7303C37.6604 60.6436 37.5693 60.5236 37.5179 60.3854C37.4665 60.2472 37.4569 60.0969 37.4904 59.9533L38.1227 57.2093L36.0082 55.3615C35.8964 55.265 35.8155 55.1377 35.7757 54.9954C35.736 54.8532 35.7391 54.7024 35.7847 54.5619C35.8303 54.4215 35.9164 54.2976 36.0321 54.2058C36.1478 54.1141 36.2881 54.0585 36.4352 54.0462L39.2224 53.8047L40.3104 51.2098C40.3672 51.0736 40.463 50.9573 40.5858 50.8755C40.7086 50.7937 40.8529 50.75 41.0004 50.75C41.1479 50.75 41.2922 50.7937 41.415 50.8755C41.5378 50.9573 41.6336 51.0736 41.6904 51.2098L42.7817 53.8047L45.5679 54.0462C45.7151 54.0585 45.8553 54.1141 45.971 54.2058C46.0868 54.2976 46.1728 54.4215 46.2184 54.5619C46.2641 54.7024 46.2672 54.8532 46.2274 54.9954C46.1876 55.1377 46.1068 55.265 45.9949 55.3615H45.9926Z" fill="#FDAD00"/>
<path d="M59.9926 55.3615L57.8785 57.2065L58.5118 59.9533C58.5453 60.0969 58.5358 60.2472 58.4843 60.3854C58.4329 60.5236 58.3418 60.6436 58.2226 60.7303C58.1033 60.8171 57.9612 60.8667 57.8139 60.8731C57.6665 60.8795 57.5206 60.8423 57.3943 60.7662L54.9985 59.313L52.6079 60.7662C52.4816 60.8423 52.3357 60.8795 52.1884 60.8731C52.041 60.8667 51.8989 60.8171 51.7796 60.7303C51.6604 60.6436 51.5693 60.5236 51.5179 60.3854C51.4665 60.2472 51.4569 60.0969 51.4904 59.9533L52.1227 57.2093L50.0082 55.3615C49.8964 55.265 49.8155 55.1377 49.7757 54.9954C49.736 54.8532 49.7391 54.7024 49.7847 54.5619C49.8303 54.4215 49.9164 54.2976 50.0321 54.2058C50.1478 54.1141 50.2881 54.0585 50.4352 54.0462L53.2224 53.8047L54.3104 51.2098C54.3672 51.0736 54.463 50.9573 54.5858 50.8755C54.7086 50.7937 54.8529 50.75 55.0004 50.75C55.1479 50.75 55.2922 50.7937 55.415 50.8755C55.5378 50.9573 55.6336 51.0736 55.6904 51.2098L56.7817 53.8047L59.5679 54.0462C59.7151 54.0585 59.8553 54.1141 59.971 54.2058C60.0868 54.2976 60.1728 54.4215 60.2184 54.5619C60.2641 54.7024 60.2672 54.8532 60.2274 54.9954C60.1876 55.1377 60.1068 55.265 59.9949 55.3615H59.9926Z" fill="#FDAD00"/>
<path d="M73.9926 55.3615L71.8785 57.2065L72.5118 59.9533C72.5453 60.0969 72.5358 60.2472 72.4843 60.3854C72.4329 60.5236 72.3418 60.6436 72.2226 60.7303C72.1033 60.8171 71.9612 60.8667 71.8139 60.8731C71.6665 60.8795 71.5206 60.8423 71.3943 60.7662L68.9985 59.313L66.6079 60.7662C66.4816 60.8423 66.3357 60.8795 66.1884 60.8731C66.041 60.8667 65.8989 60.8171 65.7796 60.7303C65.6604 60.6436 65.5693 60.5236 65.5179 60.3854C65.4665 60.2472 65.4569 60.0969 65.4904 59.9533L66.1227 57.2093L64.0082 55.3615C63.8964 55.265 63.8155 55.1377 63.7757 54.9954C63.736 54.8532 63.7391 54.7024 63.7847 54.5619C63.8303 54.4215 63.9164 54.2976 64.0321 54.2058C64.1478 54.1141 64.2881 54.0585 64.4352 54.0462L67.2224 53.8047L68.3104 51.2098C68.3672 51.0736 68.463 50.9573 68.5858 50.8755C68.7086 50.7937 68.8529 50.75 69.0004 50.75C69.1479 50.75 69.2922 50.7937 69.415 50.8755C69.5378 50.9573 69.6336 51.0736 69.6904 51.2098L70.7817 53.8047L73.5679 54.0462C73.7151 54.0585 73.8553 54.1141 73.971 54.2058C74.0868 54.2976 74.1728 54.4215 74.2184 54.5619C74.2641 54.7024 74.2672 54.8532 74.2274 54.9954C74.1876 55.1377 74.1068 55.265 73.9949 55.3615H73.9926Z" fill="#FDAD00"/>
<path d="M87.9926 55.3615L85.8785 57.2065L86.5118 59.9533C86.5453 60.0969 86.5358 60.2472 86.4843 60.3854C86.4329 60.5236 86.3418 60.6436 86.2226 60.7303C86.1033 60.8171 85.9612 60.8667 85.8139 60.8731C85.6665 60.8795 85.5206 60.8423 85.3943 60.7662L82.9985 59.313L80.6079 60.7662C80.4816 60.8423 80.3357 60.8795 80.1884 60.8731C80.041 60.8667 79.8989 60.8171 79.7796 60.7303C79.6604 60.6436 79.5693 60.5236 79.5179 60.3854C79.4665 60.2472 79.4569 60.0969 79.4904 59.9533L80.1227 57.2093L78.0082 55.3615C77.8964 55.265 77.8155 55.1377 77.7757 54.9954C77.736 54.8532 77.7391 54.7024 77.7847 54.5619C77.8303 54.4215 77.9164 54.2976 78.0321 54.2058C78.1478 54.1141 78.2881 54.0585 78.4352 54.0462L81.2224 53.8047L82.3104 51.2098C82.3672 51.0736 82.463 50.9573 82.5858 50.8755C82.7086 50.7937 82.8529 50.75 83.0004 50.75C83.1479 50.75 83.2922 50.7937 83.415 50.8755C83.5378 50.9573 83.6336 51.0736 83.6904 51.2098L84.7817 53.8047L87.5679 54.0462C87.7151 54.0585 87.8553 54.1141 87.971 54.2058C88.0868 54.2976 88.1728 54.4215 88.2184 54.5619C88.2641 54.7024 88.2672 54.8532 88.2274 54.9954C88.1876 55.1377 88.1068 55.265 87.9949 55.3615H87.9926Z" fill="#FDAD00"/>
<path d="M101.993 55.3615L99.8785 57.2065L100.512 59.9533C100.545 60.0969 100.536 60.2472 100.484 60.3854C100.433 60.5236 100.342 60.6436 100.223 60.7303C100.103 60.8171 99.9612 60.8667 99.8139 60.8731C99.6665 60.8795 99.5206 60.8423 99.3943 60.7662L96.9985 59.313L94.6079 60.7662C94.4816 60.8423 94.3357 60.8795 94.1884 60.8731C94.041 60.8667 93.8989 60.8171 93.7796 60.7303C93.6604 60.6436 93.5693 60.5236 93.5179 60.3854C93.4665 60.2472 93.4569 60.0969 93.4904 59.9533L94.1227 57.2093L92.0082 55.3615C91.8964 55.265 91.8155 55.1377 91.7757 54.9954C91.736 54.8532 91.7391 54.7024 91.7847 54.5619C91.8303 54.4215 91.9164 54.2976 92.0321 54.2058C92.1478 54.1141 92.2881 54.0585 92.4352 54.0462L95.2224 53.8047L96.3104 51.2098C96.3672 51.0736 96.463 50.9573 96.5858 50.8755C96.7086 50.7937 96.8529 50.75 97.0004 50.75C97.1479 50.75 97.2922 50.7937 97.415 50.8755C97.5378 50.9573 97.6336 51.0736 97.6904 51.2098L98.7817 53.8047L101.568 54.0462C101.715 54.0585 101.855 54.1141 101.971 54.2058C102.087 54.2976 102.173 54.4215 102.218 54.5619C102.264 54.7024 102.267 54.8532 102.227 54.9954C102.188 55.1377 102.107 55.265 101.995 55.3615H101.993Z" fill="#FDAD00"/>
</svg>
